<svg width="20" height="20" viewBox="0 0 20 20" fill="none" xmlns="http://www.w3.org/2000/svg">
<g clip-path="url(#clip0_447_1693)">
<path d="M10.0005 14.3083C9.45294 14.3092 8.91057 14.2023 8.40439 13.9935C7.89821 13.7848 7.43814 13.4783 7.05048 13.0916L0.242147 6.28327C0.0852269 6.12635 -0.00292969 5.91352 -0.00292969 5.6916C-0.00292969 5.46968 0.0852269 5.25685 0.242147 5.09993C0.399066 4.94302 0.611895 4.85486 0.833813 4.85486C1.05573 4.85486 1.26856 4.94302 1.42548 5.09993L8.23381 11.9083C8.70256 12.3764 9.33798 12.6394 10.0005 12.6394C10.663 12.6394 11.2984 12.3764 11.7671 11.9083L18.5755 5.09993C18.7324 4.94302 18.9452 4.85486 19.1671 4.85486C19.3891 4.85486 19.6019 4.94302 19.7588 5.09993C19.9157 5.25685 20.0039 5.46968 20.0039 5.6916C20.0039 5.91352 19.9157 6.12635 19.7588 6.28327L12.9505 13.0916C12.5628 13.4783 12.1027 13.7848 11.5966 13.9935C11.0904 14.2023 10.548 14.3092 10.0005 14.3083Z" fill="#3B3021"/>
</g>
<defs>
<clipPath id="clip0_447_1693">
<rect width="20" height="20" fill="white"/>
</clipPath>
</defs>
</svg>
