<svg width="12" height="12" viewBox="0 0 12 12" fill="none" xmlns="http://www.w3.org/2000/svg">
<g clip-path="url(#clip0_527_870)">
<path d="M3.74948 11.4C3.69026 11.4003 3.63155 11.389 3.57673 11.3666C3.5219 11.3442 3.47203 11.3112 3.42998 11.2695C3.38781 11.2276 3.35433 11.1779 3.33148 11.123C3.30864 11.0682 3.29688 11.0094 3.29688 10.95C3.29688 10.8906 3.30864 10.8318 3.33148 10.7769C3.35433 10.7221 3.38781 10.6723 3.42998 10.6305L7.10648 6.95398C7.3593 6.70085 7.5013 6.35773 7.5013 5.99998C7.5013 5.64223 7.3593 5.29911 7.10648 5.04598L3.42998 1.36948C3.34525 1.28475 3.29764 1.16982 3.29764 1.04999C3.29764 0.93015 3.34525 0.815222 3.42998 0.730486C3.51472 0.645749 3.62965 0.598145 3.74948 0.598145C3.86932 0.598145 3.98425 0.645749 4.06898 0.730486L7.74548 4.40698C7.95502 4.61599 8.12126 4.86428 8.23469 5.13763C8.34812 5.41098 8.40651 5.70403 8.40651 5.99998C8.40651 6.29593 8.34812 6.58898 8.23469 6.86233C8.12126 7.13568 7.95502 7.38397 7.74548 7.59298L4.06898 11.2695C4.02694 11.3112 3.97707 11.3442 3.92224 11.3666C3.86742 11.389 3.80871 11.4003 3.74948 11.4Z" fill="#3B3021"/>
</g>
<defs>
<clipPath id="clip0_527_870">
<rect width="10.8" height="10.8" fill="white" transform="translate(0.599609 0.600098)"/>
</clipPath>
</defs>
</svg>
