<svg width="32" height="32" viewBox="0 0 32 32" fill="none" xmlns="http://www.w3.org/2000/svg">
<path d="M24.0002 15.9999C23.9937 15.2984 23.711 14.6278 23.2135 14.1333L17.4935 8.39993C17.2437 8.1516 16.9057 8.01221 16.5535 8.01221C16.2012 8.01221 15.8633 8.1516 15.6135 8.39993C15.4885 8.52388 15.3893 8.67135 15.3216 8.83383C15.254 8.99631 15.2191 9.17058 15.2191 9.3466C15.2191 9.52261 15.254 9.69689 15.3216 9.85936C15.3893 10.0218 15.4885 10.1693 15.6135 10.2933L20.0002 14.6666H6.66683C6.31321 14.6666 5.97407 14.8071 5.72402 15.0571C5.47397 15.3072 5.3335 15.6463 5.3335 15.9999C5.3335 16.3535 5.47397 16.6927 5.72402 16.9427C5.97407 17.1928 6.31321 17.3333 6.66683 17.3333H20.0002L15.6135 21.7199C15.3624 21.9692 15.2207 22.308 15.2194 22.6619C15.2182 23.0157 15.3575 23.3555 15.6068 23.6066C15.8561 23.8577 16.195 23.9994 16.5488 24.0007C16.9026 24.0019 17.2424 23.8625 17.4935 23.6132L23.2135 17.8799C23.7143 17.3821 23.9972 16.706 24.0002 15.9999Z" fill="#3B3021"/>
</svg>
