<svg width="32" height="32" viewBox="0 0 32 32" fill="none" xmlns="http://www.w3.org/2000/svg">
<path d="M8.00032 16C8.00681 16.7014 8.28945 17.3721 8.78699 17.8666L14.507 23.5999C14.7568 23.8483 15.0947 23.9877 15.447 23.9877C15.7992 23.9877 16.1372 23.8483 16.387 23.5999C16.512 23.476 16.6112 23.3285 16.6788 23.1661C16.7465 23.0036 16.7814 22.8293 16.7814 22.6533C16.7814 22.4773 16.7465 22.303 16.6788 22.1405C16.6112 21.978 16.512 21.8306 16.387 21.7066L12.0003 17.3333H25.3337C25.6873 17.3333 26.0264 17.1928 26.2765 16.9428C26.5265 16.6927 26.667 16.3536 26.667 16C26.667 15.6463 26.5265 15.3072 26.2765 15.0571C26.0264 14.8071 25.6873 14.6666 25.3337 14.6666L12.0003 14.6666L16.387 10.28C16.6381 10.0307 16.7798 9.69183 16.7811 9.33801C16.7823 8.98419 16.643 8.64437 16.3937 8.3933C16.1444 8.14223 15.8055 8.00047 15.4517 7.99922C15.0979 7.99797 14.7581 8.13733 14.507 8.38663L8.78699 14.12C8.28621 14.6178 8.0033 15.2939 8.00032 16Z" fill="#3B3021"/>
</svg>
