<svg width="20" height="20" viewBox="0 0 20 20" fill="none" xmlns="http://www.w3.org/2000/svg">
<g clip-path="url(#clip0_439_705)">
<path d="M9.99952 5.69173C10.5471 5.69075 11.0894 5.7977 11.5956 6.00647C12.1018 6.21523 12.5619 6.52172 12.9495 6.9084L19.7579 13.7167C19.9148 13.8737 20.0029 14.0865 20.0029 14.3084C20.0029 14.5303 19.9148 14.7431 19.7579 14.9001C19.6009 15.057 19.3881 15.1451 19.1662 15.1451C18.9443 15.1451 18.7314 15.057 18.5745 14.9001L11.7662 8.09173C11.2974 7.62356 10.662 7.3606 9.99952 7.3606C9.33702 7.3606 8.70161 7.62356 8.23285 8.09173L1.42452 14.9001C1.2676 15.057 1.05477 15.1451 0.832854 15.1451C0.610936 15.1451 0.398108 15.057 0.241188 14.9001C0.0842684 14.7431 -0.00388861 14.5303 -0.00388861 14.3084C-0.00388861 14.0865 0.0842684 13.8737 0.241188 13.7167L7.04952 6.9084C7.43718 6.52172 7.89725 6.21523 8.40343 6.00647C8.90961 5.7977 9.45198 5.69075 9.99952 5.69173V5.69173Z" fill="#3B3021"/>
</g>
<defs>
<clipPath id="clip0_439_705">
<rect width="20" height="20" fill="white" transform="matrix(-1 0 0 -1 20 20)"/>
</clipPath>
</defs>
</svg>
