<svg width="25" height="24" viewBox="0 0 25 24" fill="none" xmlns="http://www.w3.org/2000/svg">
    <g clip-path="url(#clip0_179_116)">
        <path
            d="M7.5 0H4.5C3.43913 0 2.42172 0.421427 1.67157 1.17157C0.921427 1.92172 0.5 2.93913 0.5 4L0.5 7C0.5 8.06087 0.921427 9.07828 1.67157 9.82843C2.42172 10.5786 3.43913 11 4.5 11H7.5C8.56087 11 9.57828 10.5786 10.3284 9.82843C11.0786 9.07828 11.5 8.06087 11.5 7V4C11.5 2.93913 11.0786 1.92172 10.3284 1.17157C9.57828 0.421427 8.56087 0 7.5 0V0ZM9.5 7C9.5 7.53043 9.28929 8.03914 8.91421 8.41421C8.53914 8.78929 8.03043 9 7.5 9H4.5C3.96957 9 3.46086 8.78929 3.08579 8.41421C2.71071 8.03914 2.5 7.53043 2.5 7V4C2.5 3.46957 2.71071 2.96086 3.08579 2.58579C3.46086 2.21071 3.96957 2 4.5 2H7.5C8.03043 2 8.53914 2.21071 8.91421 2.58579C9.28929 2.96086 9.5 3.46957 9.5 4V7Z"
            fill="#CCCBD3" />
        <path
            d="M20.4997 0H17.4998C16.4389 0 15.4215 0.421428 14.6713 1.17157C13.9212 1.92172 13.4998 2.93914 13.4998 4V7C13.4998 8.06087 13.9212 9.07829 14.6713 9.82843C15.4215 10.5786 16.4389 11 17.4998 11H20.4997C21.5606 11 22.578 10.5786 23.3282 9.82843C24.0783 9.07829 24.4997 8.06087 24.4997 7V4C24.4997 2.93914 24.0783 1.92172 23.3282 1.17157C22.578 0.421428 21.5606 0 20.4997 0V0ZM22.4997 7C22.4997 7.53044 22.289 8.03915 21.914 8.41422C21.5389 8.78929 21.0302 9.00001 20.4997 9.00001H17.4998C16.9693 9.00001 16.4606 8.78929 16.0855 8.41422C15.7105 8.03915 15.4998 7.53044 15.4998 7V4C15.4998 3.46957 15.7105 2.96086 16.0855 2.58579C16.4606 2.21072 16.9693 2 17.4998 2H20.4997C21.0302 2 21.5389 2.21072 21.914 2.58579C22.289 2.96086 22.4997 3.46957 22.4997 4V7Z"
            fill="#CCCBD3" />
        <path
            d="M7.5 13H4.5C3.43913 13 2.42172 13.4214 1.67157 14.1716C0.921427 14.9217 0.5 15.9391 0.5 17L0.5 20C0.5 21.0609 0.921427 22.0783 1.67157 22.8284C2.42172 23.5786 3.43913 24 4.5 24H7.5C8.56087 24 9.57828 23.5786 10.3284 22.8284C11.0786 22.0783 11.5 21.0609 11.5 20V17C11.5 15.9391 11.0786 14.9217 10.3284 14.1716C9.57828 13.4214 8.56087 13 7.5 13ZM9.5 20C9.5 20.5304 9.28929 21.0392 8.91421 21.4142C8.53914 21.7893 8.03043 22 7.5 22H4.5C3.96957 22 3.46086 21.7893 3.08579 21.4142C2.71071 21.0392 2.5 20.5304 2.5 20V17C2.5 16.4696 2.71071 15.9609 3.08579 15.5858C3.46086 15.2107 3.96957 15 4.5 15H7.5C8.03043 15 8.53914 15.2107 8.91421 15.5858C9.28929 15.9609 9.5 16.4696 9.5 17V20Z"
            fill="#CCCBD3" />
        <path
            d="M20.4997 13H17.4998C16.4389 13 15.4215 13.4214 14.6713 14.1716C13.9212 14.9217 13.4998 15.9391 13.4998 17V20C13.4998 21.0609 13.9212 22.0783 14.6713 22.8284C15.4215 23.5786 16.4389 24 17.4998 24H20.4997C21.5606 24 22.578 23.5786 23.3282 22.8284C24.0783 22.0783 24.4997 21.0609 24.4997 20V17C24.4997 15.9391 24.0783 14.9217 23.3282 14.1716C22.578 13.4214 21.5606 13 20.4997 13ZM22.4997 20C22.4997 20.5304 22.289 21.0392 21.914 21.4142C21.5389 21.7893 21.0302 22 20.4997 22H17.4998C16.9693 22 16.4606 21.7893 16.0855 21.4142C15.7105 21.0392 15.4998 20.5304 15.4998 20V17C15.4998 16.4696 15.7105 15.9609 16.0855 15.5858C16.4606 15.2107 16.9693 15 17.4998 15H20.4997C21.0302 15 21.5389 15.2107 21.914 15.5858C22.289 15.9609 22.4997 16.4696 22.4997 17V20Z"
            fill="#CCCBD3" />
    </g>
    <defs>
        <clipPath id="clip0_179_116">
            <rect width="24" height="24" fill="white" transform="translate(0.5)" />
        </clipPath>
    </defs>
</svg>