<svg width="16" height="16" viewBox="0 0 16 16" fill="none" xmlns="http://www.w3.org/2000/svg">
<g clip-path="url(#clip0_439_681)">
<path d="M9.41392 8.00022L15.707 1.70782C16.0976 1.31718 16.0976 0.683833 15.707 0.293224C15.3164 -0.0974159 14.683 -0.0974159 14.2924 0.293224L7.99998 6.58628L1.70758 0.293224C1.31694 -0.0974159 0.683589 -0.0974159 0.29298 0.293224C-0.0976288 0.683865 -0.09766 1.31721 0.29298 1.70782L6.58603 8.00022L0.29298 14.2927C-0.09766 14.6833 -0.09766 15.3166 0.29298 15.7072C0.68362 16.0979 1.31697 16.0979 1.70758 15.7072L7.99998 9.41416L14.2924 15.7072C14.683 16.0979 15.3164 16.0979 15.707 15.7072C16.0976 15.3166 16.0976 14.6833 15.707 14.2927L9.41392 8.00022Z" fill="#3B3021"/>
</g>
<defs>
<clipPath id="clip0_439_681">
<rect width="16" height="16" fill="white"/>
</clipPath>
</defs>
</svg>
