<svg width="24" height="24" viewBox="0 0 24 24" fill="none" xmlns="http://www.w3.org/2000/svg">
<g clip-path="url(#clip0_195_334)">
<path d="M7 0H4C1.79086 0 0 1.79086 0 4V7C0 9.20914 1.79086 11 4 11H7C9.20914 11 11 9.20914 11 7V4C11 1.79086 9.20914 0 7 0Z" fill="#836E44"/>
<path d="M19.9997 0H16.9998C14.7906 0 12.9998 1.79086 12.9998 4V7C12.9998 9.20915 14.7906 11 16.9998 11H19.9997C22.2089 11 23.9997 9.20915 23.9997 7V4C23.9997 1.79086 22.2089 0 19.9997 0Z" fill="#836E44"/>
<path d="M7 13H4C1.79086 13 0 14.7909 0 17V20C0 22.2092 1.79086 24 4 24H7C9.20914 24 11 22.2092 11 20V17C11 14.7909 9.20914 13 7 13Z" fill="#836E44"/>
<path d="M19.9997 13H16.9998C14.7906 13 12.9998 14.7909 12.9998 17V20C12.9998 22.2092 14.7906 24 16.9998 24H19.9997C22.2089 24 23.9997 22.2092 23.9997 20V17C23.9997 14.7909 22.2089 13 19.9997 13Z" fill="#836E44"/>
</g>
<defs>
<clipPath id="clip0_195_334">
<rect width="24" height="24" fill="white"/>
</clipPath>
</defs>
</svg>
