<svg width="16" height="32" viewBox="0 0 16 32" fill="none" xmlns="http://www.w3.org/2000/svg">
<path d="M1.00338 20.0527C1.26851 20.0529 1.52269 20.1584 1.71005 20.346L6.82472 25.4607C6.97949 25.6155 7.16324 25.7383 7.36548 25.8221C7.56771 25.9059 7.78448 25.949 8.00338 25.949C8.22229 25.949 8.43905 25.9059 8.64129 25.8221C8.84353 25.7383 9.02728 25.6155 9.18205 25.4607L14.29 20.3527C14.4787 20.1705 14.7313 20.0697 14.9935 20.072C15.2556 20.0743 15.5065 20.1795 15.6919 20.3649C15.8773 20.5503 15.9824 20.8011 15.9847 21.0633C15.987 21.3255 15.8862 21.5781 15.7041 21.7667L10.6 26.8747C9.91188 27.5615 8.97932 27.9473 8.00705 27.9473C7.03478 27.9473 6.10223 27.5615 5.41405 26.8747L0.29605 21.76C0.156106 21.6202 0.0607924 21.442 0.0221697 21.2479C-0.0164531 21.0539 0.00335101 20.8527 0.079076 20.67C0.154801 20.4872 0.283043 20.331 0.447576 20.2211C0.612108 20.1112 0.805536 20.0526 1.00338 20.0527Z" fill="#3B2C26"/>
<path d="M15.0001 11.9473C14.735 11.947 14.4808 11.8415 14.2934 11.6539L9.17876 6.53927C9.02399 6.38445 8.84024 6.26165 8.638 6.17786C8.43576 6.09408 8.219 6.05095 8.00009 6.05095C7.78119 6.05095 7.56442 6.09408 7.36219 6.17786C7.15995 6.26165 6.9762 6.38445 6.82143 6.53927L1.71009 11.6473C1.52149 11.8294 1.26889 11.9302 1.00669 11.9279C0.744495 11.9257 0.493682 11.8205 0.308274 11.6351C0.122866 11.4497 0.0176971 11.1989 0.0154187 10.9367C0.0131402 10.6745 0.113935 10.4219 0.296093 10.2333L5.40343 5.12527C6.0916 4.43844 7.02416 4.0527 7.99643 4.0527C8.9687 4.0527 9.90125 4.43844 10.5894 5.12527L15.7041 10.2399C15.8438 10.3796 15.9391 10.5575 15.9778 10.7512C16.0165 10.945 15.997 11.1458 15.9217 11.3285C15.8464 11.5111 15.7187 11.6674 15.5546 11.7775C15.3906 11.8876 15.1977 11.9467 15.0001 11.9473Z" fill="#3B2C26"/>
</svg>
