<svg width="24" height="24" viewBox="0 0 24 24" fill="none" xmlns="http://www.w3.org/2000/svg">
<g clip-path="url(#clip0_619_1141)">
<path d="M19 23.9999H17C16.7348 23.9999 16.4804 23.8945 16.2929 23.707C16.1054 23.5194 16 23.2651 16 22.9999C16 22.7346 16.1054 22.4803 16.2929 22.2928C16.4804 22.1052 16.7348 21.9999 17 21.9999H19C19.7956 21.9999 20.5587 21.6838 21.1213 21.1212C21.6839 20.5586 22 19.7955 22 18.9999V16.9999C22 16.7347 22.1053 16.4803 22.2929 16.2928C22.4804 16.1052 22.7348 15.9999 23 15.9999C23.2652 15.9999 23.5196 16.1052 23.7071 16.2928C23.8946 16.4803 24 16.7347 24 16.9999V18.9999C23.9984 20.3255 23.4711 21.5963 22.5338 22.5336C21.5964 23.471 20.3256 23.9983 19 23.9999V23.9999Z" fill="#EFEFE8"/>
<path d="M1 8C0.734784 8 0.48043 7.89464 0.292893 7.70711C0.105357 7.51957 0 7.26522 0 7V5C0.00158786 3.6744 0.528882 2.40356 1.46622 1.46622C2.40356 0.528882 3.6744 0.00158786 5 0L7 0C7.26522 0 7.51957 0.105357 7.70711 0.292893C7.89464 0.48043 8 0.734784 8 1C8 1.26522 7.89464 1.51957 7.70711 1.70711C7.51957 1.89464 7.26522 2 7 2H5C4.20435 2 3.44129 2.31607 2.87868 2.87868C2.31607 3.44129 2 4.20435 2 5V7C2 7.26522 1.89464 7.51957 1.70711 7.70711C1.51957 7.89464 1.26522 8 1 8V8Z" fill="#EFEFE8"/>
<path d="M7 23.9999H5C3.6744 23.9983 2.40356 23.471 1.46622 22.5336C0.528882 21.5963 0.00158786 20.3255 0 18.9999L0 16.9999C0 16.7347 0.105357 16.4803 0.292893 16.2928C0.48043 16.1052 0.734784 15.9999 1 15.9999C1.26522 15.9999 1.51957 16.1052 1.70711 16.2928C1.89464 16.4803 2 16.7347 2 16.9999V18.9999C2 19.7955 2.31607 20.5586 2.87868 21.1212C3.44129 21.6838 4.20435 21.9999 5 21.9999H7C7.26522 21.9999 7.51957 22.1052 7.70711 22.2928C7.89464 22.4803 8 22.7346 8 22.9999C8 23.2651 7.89464 23.5194 7.70711 23.707C7.51957 23.8945 7.26522 23.9999 7 23.9999Z" fill="#EFEFE8"/>
<path d="M23 8C22.7348 8 22.4804 7.89464 22.2929 7.70711C22.1053 7.51957 22 7.26522 22 7V5C22 4.20435 21.6839 3.44129 21.1213 2.87868C20.5587 2.31607 19.7956 2 19 2H17C16.7348 2 16.4804 1.89464 16.2929 1.70711C16.1054 1.51957 16 1.26522 16 1C16 0.734784 16.1054 0.48043 16.2929 0.292893C16.4804 0.105357 16.7348 0 17 0L19 0C20.3256 0.00158786 21.5964 0.528882 22.5338 1.46622C23.4711 2.40356 23.9984 3.6744 24 5V7C24 7.26522 23.8946 7.51957 23.7071 7.70711C23.5196 7.89464 23.2652 8 23 8Z" fill="#EFEFE8"/>
</g>
<defs>
<clipPath id="clip0_619_1141">
<rect width="24" height="24" fill="white"/>
</clipPath>
</defs>
</svg>
