<svg width="24" height="24" viewBox="0 0 24 24" fill="none" xmlns="http://www.w3.org/2000/svg">
<g clip-path="url(#clip0_232_460)">
<path d="M23.2708 9.41882C22.3681 7.94054 21.2293 6.62007 19.8998 5.50982L22.6998 2.70982C22.882 2.52122 22.9828 2.26861 22.9805 2.00642C22.9782 1.74422 22.873 1.49341 22.6876 1.308C22.5022 1.12259 22.2514 1.01742 21.9892 1.01514C21.727 1.01287 21.4744 1.11366 21.2858 1.29582L18.2408 4.34482C16.3532 3.22364 14.1952 2.63928 11.9998 2.65482C5.80881 2.65482 2.28081 6.89282 0.728807 9.41882C0.249335 10.1943 -0.00463867 11.0881 -0.00463867 11.9998C-0.00463867 12.9116 0.249335 13.8053 0.728807 14.5808C1.63156 16.0591 2.7703 17.3796 4.09981 18.4898L1.29981 21.2898C1.2043 21.3821 1.12811 21.4924 1.07571 21.6144C1.0233 21.7364 0.99571 21.8676 0.994557 22.0004C0.993403 22.1332 1.0187 22.2649 1.06899 22.3878C1.11927 22.5107 1.19352 22.6223 1.28741 22.7162C1.3813 22.8101 1.49296 22.8844 1.61585 22.9346C1.73875 22.9849 1.87043 23.0102 2.00321 23.0091C2.13599 23.0079 2.26721 22.9803 2.38921 22.9279C2.51122 22.8755 2.62156 22.7993 2.71381 22.7038L5.76581 19.6518C7.65107 20.7728 9.80648 21.3582 11.9998 21.3448C18.1908 21.3448 21.7188 17.1068 23.2708 14.5808C23.7503 13.8053 24.0043 12.9116 24.0043 11.9998C24.0043 11.0881 23.7503 10.1943 23.2708 9.41882V9.41882ZM2.43281 13.5338C2.14794 13.0729 1.99706 12.5417 1.99706 11.9998C1.99706 11.4579 2.14794 10.9268 2.43281 10.4658C3.76681 8.29982 6.78181 4.65482 11.9998 4.65482C13.6601 4.64552 15.297 5.04566 16.7658 5.81982L14.7528 7.83282C13.7927 7.19542 12.6417 6.90981 11.495 7.02446C10.3484 7.13911 9.27667 7.64696 8.46181 8.46182C7.64695 9.27668 7.1391 10.3484 7.02445 11.4951C6.9098 12.6417 7.19541 13.7928 7.83281 14.7528L5.52281 17.0628C4.29791 16.0725 3.25264 14.8788 2.43281 13.5338V13.5338ZM14.9998 11.9998C14.9998 12.7955 14.6837 13.5585 14.1211 14.1211C13.5585 14.6837 12.7955 14.9998 11.9998 14.9998C11.5543 14.9981 11.115 14.8955 10.7148 14.6998L14.6998 10.7148C14.8955 11.115 14.9981 11.5543 14.9998 11.9998V11.9998ZM8.99981 11.9998C8.99981 11.2042 9.31588 10.4411 9.87849 9.8785C10.4411 9.31589 11.2042 8.99982 11.9998 8.99982C12.4453 9.00154 12.8846 9.10411 13.2848 9.29982L9.29981 13.2848C9.1041 12.8846 9.00153 12.4453 8.99981 11.9998ZM21.5668 13.5338C20.2328 15.6998 17.2178 19.3448 11.9998 19.3448C10.3395 19.3541 8.70257 18.954 7.23381 18.1798L9.24681 16.1668C10.2069 16.8042 11.3579 17.0898 12.5046 16.9752C13.6512 16.8605 14.7229 16.3527 15.5378 15.5378C16.3527 14.723 16.8605 13.6513 16.9752 12.5046C17.0898 11.3579 16.8042 10.2069 16.1668 9.24682L18.4768 6.93682C19.7017 7.9271 20.747 9.12087 21.5668 10.4658C21.8517 10.9268 22.0026 11.4579 22.0026 11.9998C22.0026 12.5417 21.8517 13.0729 21.5668 13.5338V13.5338Z" fill="#3B3021"/>
</g>
<defs>
<clipPath id="clip0_232_460">
<rect width="24" height="24" fill="white"/>
</clipPath>
</defs>
</svg>
