<svg width="28" height="28" viewBox="0 0 28 28" fill="none" xmlns="http://www.w3.org/2000/svg">
<g clip-path="url(#clip0_387_620)">
<path d="M16.3337 28C16.0813 28 15.8357 27.9181 15.6337 27.7667L10.9671 24.2667C10.8222 24.158 10.7046 24.0171 10.6236 23.8551C10.5426 23.6931 10.5004 23.5145 10.5004 23.3333V16.7767L2.31505 7.56817C1.73372 6.91236 1.35416 6.10262 1.22198 5.23627C1.08979 4.36993 1.21062 3.48384 1.56993 2.68452C1.92924 1.88519 2.51174 1.20664 3.24743 0.73041C3.98312 0.254185 4.84068 0.000553489 5.71705 0L22.2837 0C23.16 0.00102789 24.0174 0.255079 24.7528 0.731624C25.4881 1.20817 26.0703 1.88693 26.4292 2.68635C26.7881 3.48577 26.9086 4.37182 26.7761 5.23804C26.6435 6.10426 26.2637 6.91378 25.6822 7.56933L17.5004 16.7767V26.8333C17.5004 27.1428 17.3775 27.4395 17.1587 27.6583C16.9399 27.8771 16.6431 28 16.3337 28ZM12.8337 22.75L15.1671 24.5V16.3333C15.1673 16.0477 15.2723 15.772 15.4622 15.5587L23.9416 6.01883C24.2243 5.69926 24.4088 5.30488 24.4729 4.88303C24.537 4.46118 24.478 4.02979 24.3029 3.64065C24.1279 3.25151 23.8443 2.92117 23.4861 2.68927C23.1279 2.45737 22.7104 2.33378 22.2837 2.33333H5.71705C5.29058 2.33398 4.87334 2.45764 4.51539 2.68948C4.15744 2.92132 3.87396 3.25149 3.69896 3.64041C3.52396 4.02932 3.46487 4.46047 3.52877 4.88213C3.59267 5.30379 3.77685 5.69806 4.05922 6.01767L12.5397 15.5587C12.7292 15.7722 12.8338 16.0478 12.8337 16.3333V22.75Z" fill="#3B3021"/>
</g>
<defs>
<clipPath id="clip0_387_620">
<rect width="28" height="28" fill="white"/>
</clipPath>
</defs>
</svg>
