<svg width="20" height="20" viewBox="0 0 20 20" fill="none" xmlns="http://www.w3.org/2000/svg">
    <g clip-path="url(#clip0_98_358)">
        <path
            d="M14.5832 1.59717C13.6448 1.61176 12.7269 1.87371 11.9222 2.35656C11.1174 2.83941 10.4544 3.52606 9.99988 4.34717C9.54542 3.52606 8.88233 2.83941 8.07758 2.35656C7.27283 1.87371 6.35493 1.61176 5.41655 1.59717C3.92067 1.66216 2.51131 2.31655 1.49637 3.41736C0.481433 4.51818 -0.0565749 5.97594 -0.000116138 7.47217C-0.000116138 11.2613 3.98822 15.3997 7.33322 18.2055C8.08007 18.8331 9.02435 19.1772 9.99988 19.1772C10.9754 19.1772 11.9197 18.8331 12.6665 18.2055C16.0115 15.3997 19.9999 11.2613 19.9999 7.47217C20.0563 5.97594 19.5183 4.51818 18.5034 3.41736C17.4885 2.31655 16.0791 1.66216 14.5832 1.59717ZM11.5957 16.9305C11.149 17.3066 10.5838 17.5129 9.99988 17.5129C9.41592 17.5129 8.85073 17.3066 8.40405 16.9305C4.12238 13.338 1.66655 9.89133 1.66655 7.47217C1.60958 6.41776 1.97186 5.38361 2.67435 4.59525C3.37685 3.80689 4.36258 3.32829 5.41655 3.26383C6.47052 3.32829 7.45625 3.80689 8.15875 4.59525C8.86125 5.38361 9.22352 6.41776 9.16655 7.47217C9.16655 7.69318 9.25435 7.90514 9.41063 8.06142C9.56691 8.2177 9.77887 8.3055 9.99988 8.3055C10.2209 8.3055 10.4329 8.2177 10.5891 8.06142C10.7454 7.90514 10.8332 7.69318 10.8332 7.47217C10.7763 6.41776 11.1385 5.38361 11.841 4.59525C12.5435 3.80689 13.5292 3.32829 14.5832 3.26383C15.6372 3.32829 16.6229 3.80689 17.3254 4.59525C18.0279 5.38361 18.3902 6.41776 18.3332 7.47217C18.3332 9.89133 15.8774 13.338 11.5957 16.9272V16.9305Z"
            fill="#B7B7C3" />
    </g>
    <defs>
        <clipPath id="clip0_98_358">
            <rect width="20" height="20" fill="white" />
        </clipPath>
    </defs>
</svg>