<svg width="24" height="24" viewBox="0 0 24 24" fill="none" xmlns="http://www.w3.org/2000/svg">
<g clip-path="url(#clip0_662_829)">
<path d="M12 6C11.2089 6 10.4355 6.2346 9.77772 6.67412C9.11993 7.11365 8.60723 7.73836 8.30448 8.46927C8.00173 9.20017 7.92252 10.0044 8.07686 10.7804C8.2312 11.5563 8.61216 12.269 9.17157 12.8284C9.73098 13.3878 10.4437 13.7688 11.2196 13.9231C11.9956 14.0775 12.7998 13.9983 13.5307 13.6955C14.2616 13.3928 14.8864 12.8801 15.3259 12.2223C15.7654 11.5645 16 10.7911 16 10C16 8.93913 15.5786 7.92172 14.8284 7.17157C14.0783 6.42143 13.0609 6 12 6ZM12 12C11.6044 12 11.2178 11.8827 10.8889 11.6629C10.56 11.4432 10.3036 11.1308 10.1522 10.7654C10.0009 10.3999 9.96126 9.99778 10.0384 9.60982C10.1156 9.22186 10.3061 8.86549 10.5858 8.58579C10.8655 8.30608 11.2219 8.1156 11.6098 8.03843C11.9978 7.96126 12.3999 8.00087 12.7654 8.15224C13.1308 8.30362 13.4432 8.55996 13.6629 8.88886C13.8827 9.21776 14 9.60444 14 10C14 10.5304 13.7893 11.0391 13.4142 11.4142C13.0391 11.7893 12.5304 12 12 12Z" fill="#836E44"/>
<path d="M12.0003 24.0003C11.1583 24.0046 10.3274 23.8071 9.57738 23.4243C8.82733 23.0416 8.17991 22.4847 7.68931 21.8003C3.87831 16.5433 1.94531 12.5913 1.94531 10.0533C1.94531 7.38654 3.00468 4.82901 4.89035 2.94333C6.77603 1.05765 9.33356 -0.00170898 12.0003 -0.00170898C14.6671 -0.00170898 17.2246 1.05765 19.1103 2.94333C20.9959 4.82901 22.0553 7.38654 22.0553 10.0533C22.0553 12.5913 20.1223 16.5433 16.3113 21.8003C15.8207 22.4847 15.1733 23.0416 14.4232 23.4243C13.6732 23.8071 12.8424 24.0046 12.0003 24.0003V24.0003ZM12.0003 2.18129C9.91273 2.18367 7.91133 3.01402 6.43518 4.49016C4.95904 5.96631 4.12869 7.96771 4.12631 10.0553C4.12631 12.0653 6.01931 15.7823 9.45531 20.5213C9.74701 20.9231 10.1297 21.2501 10.572 21.4756C11.0144 21.701 11.5038 21.8186 12.0003 21.8186C12.4968 21.8186 12.9863 21.701 13.4286 21.4756C13.8709 21.2501 14.2536 20.9231 14.5453 20.5213C17.9813 15.7823 19.8743 12.0653 19.8743 10.0553C19.8719 7.96771 19.0416 5.96631 17.5654 4.49016C16.0893 3.01402 14.0879 2.18367 12.0003 2.18129V2.18129Z" fill="#836E44"/>
</g>
<defs>
<clipPath id="clip0_662_829">
<rect width="24" height="24" fill="white"/>
</clipPath>
</defs>
</svg>
