<svg width="8" height="8" viewBox="0 0 8 8" fill="none" xmlns="http://www.w3.org/2000/svg">
<g clip-path="url(#clip0_531_1038)">
<path d="M7.66667 3.66667H4.33333V0.333333C4.33333 0.244928 4.29821 0.160143 4.2357 0.0976311C4.17319 0.035119 4.08841 0 4 0V0C3.91159 0 3.82681 0.035119 3.7643 0.0976311C3.70179 0.160143 3.66667 0.244928 3.66667 0.333333V3.66667H0.333333C0.244928 3.66667 0.160143 3.70179 0.0976311 3.7643C0.035119 3.82681 0 3.91159 0 4H0C0 4.08841 0.035119 4.17319 0.0976311 4.2357C0.160143 4.29821 0.244928 4.33333 0.333333 4.33333H3.66667V7.66667C3.66667 7.75507 3.70179 7.83986 3.7643 7.90237C3.82681 7.96488 3.91159 8 4 8C4.08841 8 4.17319 7.96488 4.2357 7.90237C4.29821 7.83986 4.33333 7.75507 4.33333 7.66667V4.33333H7.66667C7.75507 4.33333 7.83986 4.29821 7.90237 4.2357C7.96488 4.17319 8 4.08841 8 4C8 3.91159 7.96488 3.82681 7.90237 3.7643C7.83986 3.70179 7.75507 3.66667 7.66667 3.66667Z" fill="#3B3021"/>
</g>
<defs>
<clipPath id="clip0_531_1038">
<rect width="8" height="8" fill="white"/>
</clipPath>
</defs>
</svg>
