<svg width="20" height="20" viewBox="0 0 20 20" fill="none" xmlns="http://www.w3.org/2000/svg">
<g clip-path="url(#clip0_668_848)">
<path d="M0.97513 12.3573L4.20763 15.5898C4.3648 15.7416 4.5753 15.8256 4.7938 15.8237C5.0123 15.8218 5.22131 15.7342 5.37581 15.5797C5.53032 15.4251 5.61796 15.2161 5.61986 14.9976C5.62176 14.7791 5.53776 14.5686 5.38596 14.4115L2.15346 11.179C2.05743 11.081 1.97349 10.9719 1.90346 10.854C1.91596 10.854 1.92596 10.8606 1.93846 10.8606L15.0085 10.834C15.2295 10.834 15.4414 10.7462 15.5977 10.5899C15.754 10.4336 15.8418 10.2217 15.8418 10.0006C15.8418 9.77962 15.754 9.56766 15.5977 9.41138C15.4414 9.2551 15.2295 9.1673 15.0085 9.1673L1.94346 9.19397C1.92013 9.19397 1.90096 9.20564 1.87846 9.2073C1.95238 9.06634 2.04611 8.93669 2.1568 8.8223L5.3893 5.58981C5.46889 5.51293 5.53237 5.42098 5.57605 5.31931C5.61972 5.21764 5.64271 5.10829 5.64367 4.99764C5.64463 4.88699 5.62355 4.77726 5.58165 4.67484C5.53975 4.57243 5.47787 4.47939 5.39963 4.40114C5.32138 4.3229 5.22834 4.26102 5.12593 4.21912C5.02351 4.17722 4.91378 4.15613 4.80313 4.1571C4.69248 4.15806 4.58313 4.18105 4.48146 4.22472C4.37979 4.2684 4.28784 4.33188 4.21096 4.41147L0.978464 7.64397C0.35356 8.26906 0.00250981 9.11676 0.00250981 10.0006C0.00250981 10.8845 0.35356 11.7322 0.978464 12.3573H0.97513Z" fill="white"/>
<path d="M14.1667 1.66667H15.8333C16.4964 1.66667 17.1323 1.93006 17.6011 2.3989C18.0699 2.86774 18.3333 3.50363 18.3333 4.16667L18.3333 15.8333C18.3333 16.4964 18.0699 17.1323 17.6011 17.6011C17.1323 18.0699 16.4964 18.3333 15.8333 18.3333H14.1667C13.9457 18.3333 13.7337 18.4211 13.5774 18.5774C13.4211 18.7337 13.3333 18.9457 13.3333 19.1667C13.3333 19.3877 13.4211 19.5996 13.5774 19.7559C13.7337 19.9122 13.9457 20 14.1667 20H15.8333C16.938 19.9987 17.997 19.5593 18.7782 18.7782C19.5593 17.997 19.9987 16.938 20 15.8333L20 4.16667C19.9987 3.062 19.5593 2.00296 18.7782 1.22185C17.997 0.440735 16.938 0.00132369 15.8333 4.76837e-07H14.1667C13.9457 4.76837e-07 13.7337 0.0877972 13.5774 0.244078C13.4211 0.400358 13.3333 0.61232 13.3333 0.833334C13.3333 1.05435 13.4211 1.26631 13.5774 1.42259C13.7337 1.57887 13.9457 1.66667 14.1667 1.66667Z" fill="white"/>
</g>
<defs>
<clipPath id="clip0_668_848">
<rect width="20" height="20" fill="white" transform="matrix(-1 0 0 -1 20 20)"/>
</clipPath>
</defs>
</svg>
