<svg width="8" height="8" viewBox="0 0 8 8" fill="none" xmlns="http://www.w3.org/2000/svg">
<path d="M4.69105 0.577671L5.39498 1.99715C5.49097 2.19475 5.74694 2.38428 5.96291 2.42057L7.23877 2.6343C8.05468 2.77141 8.24666 3.36824 7.65873 3.957L6.66684 4.95709C6.49885 5.12645 6.40686 5.4531 6.45886 5.68699L6.74283 6.925C6.9668 7.90492 6.45086 8.28399 5.59095 7.77185L4.39509 7.05808C4.17911 6.92903 3.82315 6.92903 3.60317 7.05808L2.40731 7.77185C1.5514 8.28399 1.03146 7.90089 1.25543 6.925L1.5394 5.68699C1.5914 5.4531 1.49941 5.12645 1.33143 4.95709L0.339535 3.957C-0.2444 3.36824 -0.0564207 2.77141 0.759489 2.6343L2.03535 2.42057C2.24732 2.38428 2.5033 2.19475 2.59929 1.99715L3.30321 0.577671C3.68717 -0.192557 4.3111 -0.192557 4.69105 0.577671Z" fill="#836E44"/>
</svg>
