<svg width="24" height="24" viewBox="0 0 24 24" fill="none" xmlns="http://www.w3.org/2000/svg">
<path d="M13.3895 5.14875L14.7995 7.96875C14.9895 8.35875 15.4995 8.72875 15.9295 8.80875L18.4795 9.22875C20.1095 9.49875 20.4895 10.6788 19.3195 11.8588L17.3295 13.8488C16.9995 14.1788 16.8095 14.8288 16.9195 15.2988L17.4895 17.7588C17.9395 19.6988 16.8995 20.4588 15.1895 19.4388L12.7995 18.0188C12.3695 17.7588 11.6495 17.7588 11.2195 18.0188L8.82945 19.4388C7.11945 20.4488 6.07945 19.6988 6.52945 17.7588L7.09945 15.2988C7.18945 14.8188 6.99945 14.1688 6.66945 13.8388L4.67945 11.8488C3.50945 10.6788 3.88945 9.49875 5.51945 9.21875L8.06945 8.79875C8.49945 8.72875 9.00945 8.34875 9.19945 7.95875L10.6095 5.13875C11.3795 3.61875 12.6195 3.61875 13.3895 5.14875Z" fill="#FCAE5B"/>
</svg>
